<?xml version="1.0" encoding="UTF-8"?>
<svg width="166px" height="158px" viewBox="0 0 166 158" version="1.1" xmlns="http://www.w3.org/2000/svg" xmlns:xlink="http://www.w3.org/1999/xlink">
    <title>审核通过</title>
    <defs>
        <linearGradient x1="50%" y1="0%" x2="50%" y2="44.998689%" id="linearGradient-1">
            <stop stop-color="#92C1FC" stop-opacity="0.2" offset="0%"></stop>
            <stop stop-color="#187FC4" stop-opacity="0" offset="100%"></stop>
        </linearGradient>
        <linearGradient x1="50.0161331%" y1="-0.00792255284%" x2="50.0161331%" y2="99.9813726%" id="linearGradient-2">
            <stop stop-color="#92C1FC" stop-opacity="0.4" offset="3%"></stop>
            <stop stop-color="#92C1FC" stop-opacity="0.2" offset="25%"></stop>
            <stop stop-color="#187FC4" stop-opacity="0" offset="80%"></stop>
        </linearGradient>
        <linearGradient x1="50.0089171%" y1="0.0055031418%" x2="50.0089171%" y2="100.062446%" id="linearGradient-3">
            <stop stop-color="#92C1FC" stop-opacity="0.4" offset="3%"></stop>
            <stop stop-color="#92C1FC" stop-opacity="0.2" offset="25%"></stop>
            <stop stop-color="#187FC4" stop-opacity="0" offset="80%"></stop>
        </linearGradient>
        <linearGradient x1="50.0049803%" y1="0.00880767132%" x2="50.0049803%" y2="99.9974504%" id="linearGradient-4">
            <stop stop-color="#92C1FC" stop-opacity="0.4" offset="3%"></stop>
            <stop stop-color="#92C1FC" stop-opacity="0.2" offset="25%"></stop>
            <stop stop-color="#187FC4" stop-opacity="0" offset="80%"></stop>
        </linearGradient>
        <linearGradient x1="79.5667177%" y1="21.2164705%" x2="39.1412902%" y2="59.5055433%" id="linearGradient-5">
            <stop stop-color="#63A6F9" offset="0%"></stop>
            <stop stop-color="#92C1FC" offset="100%"></stop>
        </linearGradient>
        <linearGradient x1="77.2735318%" y1="20.6994102%" x2="30.6078552%" y2="61.6315513%" id="linearGradient-6">
            <stop stop-color="#63A6F9" offset="0%"></stop>
            <stop stop-color="#92C1FC" offset="100%"></stop>
        </linearGradient>
    </defs>
    <ellipse id="椭圆形" fill="url(#linearGradient-1)" fill-rule="nonzero" cx="84.296875" cy="108.9375" rx="81.703125" ry="48.4166667"></ellipse>
                <path d="M34.4901073,10.883897 C35.752892,8.69307287 38.5454818,7.03784683 44.5033777,8.21445329 C44.5033777,8.21445329 54.0187661,-9.16399558 68.9357576,6.63329934 C68.9357576,6.63329934 77.8364425,4.45671984 80.1061171,11.3425741 C81.0959313,14.3932801 79.5610957,17.7007672 76.6265056,18.8409474 C68.9746981,21.8494133 51.4292231,27.102833 36.8905107,19.1429336 C33.9866623,17.5503839 32.8128845,13.7983483 34.4901073,10.883897 Z" id="路径" fill="url(#linearGradient-2)" fill-rule="nonzero"></path>
                <path d="M0.642737417,51.7036957 C1.69624451,49.9980029 4.02142365,48.7098067 8.99615876,49.6244535 C8.99615876,49.6244535 16.9247326,36.0942726 29.3515233,48.3939377 C29.3515233,48.3939377 36.7576494,46.7019784 38.6608516,52.060765 C39.4767058,54.4343386 38.1951498,57.0018159 35.7529424,57.8864884 C29.3773586,60.2266659 14.7603066,64.3054963 2.6464103,58.1199568 C0.223631054,56.8921877 -0.755240657,53.9724592 0.642737417,51.7036957 Z" id="路径" fill="url(#linearGradient-3)" fill-rule="nonzero"></path>
                <path d="M123.427413,22.3012837 C124.50176,20.5979278 126.879461,19.3120062 131.965647,20.2253187 C131.965647,20.2253187 140.068488,6.70212962 152.771232,18.9954285 C152.771232,18.9954285 160.339726,17.3144852 162.284861,22.659885 C163.13303,25.0244119 161.812713,27.5962552 159.319096,28.4899567 C152.816468,30.8320711 137.860422,34.9083587 125.479982,28.7252888 C122.997674,27.4869939 121.999662,24.5705572 123.427413,22.3012837 Z" id="路径" fill="url(#linearGradient-4)" fill-rule="nonzero"></path>
                <path d="M106.34375,95.0080115 C106.34375,95.0080115 111.198741,79.2879101 125.013143,72.228407 L128.400476,74.572162 L126.748663,71.2005433 C126.748663,71.2005433 136.640009,65.6263597 141.673574,69.9383042 C144.502862,72.3583018 141.176914,80.5868586 132.287259,91.1535229 L129.265445,90.2386113 L131.146057,92.9918175 C131.146057,92.9918175 125.389823,103.942519 115.079943,104.614583 L110.272386,100.319582 L106.34375,95.0080115 Z" id="路径" fill="url(#linearGradient-5)" fill-rule="nonzero"></path>
                <path d="M109.830051,101.138793 C109.529008,101.419836 111.678906,98.2777829 115.282894,93.8541774 C121.02826,86.805637 130.653098,75.4234245 141.791667,70.8958333" id="路径" stroke="#AAD0FF" stroke-width="1.74" fill="url(#linearGradient-6)" fill-rule="nonzero" stroke-linecap="round"></path>
                <path d="M125.364583,81.6764429 C125.364583,81.6764429 131.039777,79.8751242 134.875,83.8645833" id="路径" stroke="#AAD0FF" stroke-width="1.74" stroke-linecap="round"></path>
                <path d="M126.229167,96.8333333 C121.395605,91.2206157 115.854167,92.6816866 115.854167,92.6816866" id="路径" stroke="#AAD0FF" stroke-width="1.74" stroke-linecap="round"></path>
                <path d="M117.583333,89.9166667 C117.583333,89.9166667 121.789479,83.1189854 121.90625,75.21875" id="路径" stroke="#AAD0FF" stroke-width="1.74" stroke-linecap="round"></path>
                <path d="M149.572917,86.4583333 C149.572917,86.4583333 141.215808,111.039343 115.170395,108.792325 L110.666667,101.168921 C110.666667,101.168921 146.091982,90.470054 149.572917,86.4583333 Z" id="路径" fill="#AAD0FF" fill-rule="nonzero"></path>
                <path d="M110.666667,101.60071 C110.666667,101.60071 118.516676,93.0701638 133.437423,90.7075442 C133.437423,90.7075442 145.017619,89.6036255 149.572917,86.4583333 C149.572917,86.4583333 143.115281,93.4381367 131.907531,94.7172806 C131.907531,94.7172806 132.873025,95.6780987 139.837759,94.372671 C139.837759,94.372671 129.022509,104.234929 113.720721,104.614583 L110.666667,101.60071 Z" id="路径" fill="#63A6F9" fill-rule="nonzero"></path>
                <path d="M109.167079,20.5152647 L106.348347,20.5152647 L106.348347,17.3400954 C106.348347,16.8358528 105.959202,16.4270833 105.479167,16.4270833 C104.999131,16.4270833 104.609986,16.8358528 104.609986,17.3400954 L104.609986,20.5152647 L101.791255,20.5152647 C101.564389,20.5152646 101.354757,20.6423993 101.241325,20.8487781 C101.127892,21.055157 101.127892,21.3094263 101.241325,21.5158052 C101.354757,21.7221841 101.564389,21.8493187 101.791255,21.8493187 L104.609986,21.8493187 L104.609986,25.0244879 C104.609986,25.5287306 104.999131,25.9375 105.479167,25.9375 C105.959202,25.9375 106.348347,25.5287306 106.348347,25.0244879 L106.348347,21.8493187 L109.167079,21.8493187 C109.393944,21.8493187 109.603576,21.7221841 109.717009,21.5158052 C109.830442,21.3094263 109.830442,21.055157 109.717009,20.8487781 C109.603576,20.6423993 109.393944,20.5152646 109.167079,20.5152647 L109.167079,20.5152647 Z" id="路径" fill="#63A6F9" fill-rule="nonzero"></path>
                <path d="M37.179858,46.8674794 C37.8069197,46.8663788 38.3727993,47.2434088 38.6132753,47.8225282 C38.8537512,48.4016475 38.7213872,49.0686194 38.2779869,49.5120198 C37.8345867,49.9554203 37.1676151,50.0877844 36.588496,49.8473083 C36.009377,49.6068323 35.6323472,49.0409524 35.6334478,48.4138904 C35.6349514,47.5604551 36.3264231,46.8689831 37.179858,46.8674794 M37.179858,44.9583344 C35.7806183,44.9572324 34.5185945,45.7994113 33.9826189,47.0919301 C33.4466434,48.3844489 33.7423458,49.8725788 34.731758,50.8619915 C35.7211702,51.8514042 37.2092995,52.1471067 38.5018177,51.611131 C39.7943359,51.0751552 40.6365143,49.8131308 40.6354124,48.4138904 C40.6354124,46.5054401 39.0883074,44.9583344 37.179858,44.9583344 L37.179858,44.9583344 Z" id="形状" fill="#63A6F9" fill-rule="nonzero"></path>
                <path d="M140.929861,62.4299793 C141.556675,62.4288782 142.122383,62.8056126 142.363019,63.3843967 C142.603656,63.9631809 142.471792,64.6299387 142.028958,65.0735541 C141.586123,65.5171695 140.919599,65.6502077 140.340391,65.4105916 C139.761184,65.1709754 139.383452,64.6059325 139.383452,63.9791176 C139.383452,63.1246175 140.075362,62.4314862 140.929861,62.4299793 M140.929861,60.5208344 C139.530869,60.5197322 138.269016,61.3616157 137.73288,62.6537994 C137.196744,63.9459832 137.491947,65.4338991 138.480794,66.4235264 C139.469641,67.4131537 140.957324,67.7095299 142.249931,67.1744137 C143.542537,66.6392976 144.385417,65.3781102 144.385417,63.9791176 C144.385417,62.0702257 142.838753,60.5223409 140.929861,60.5208344 L140.929861,60.5208344 Z" id="形状" fill="#63A6F9" fill-rule="nonzero"></path>
                <rect id="矩形" fill="#63A6F9" fill-rule="nonzero" x="46.6875" y="32.8541667" width="68.3020833" height="83.8645833" rx="12"></rect>
                <rect id="矩形" fill="#92C1FC" fill-rule="nonzero" x="48.4166667" y="32.8541667" width="68.3020833" height="83.8645833" rx="12"></rect>
                <rect id="矩形" fill="#F7F8F8" fill-rule="nonzero" x="51.875" y="37.1770833" width="61.3854167" height="75.21875" rx="12"></rect>
                <rect id="矩形" fill="#63A6F9" fill-rule="nonzero" x="68.3020833" y="28.53125" width="26.8020833" height="10.375" rx="5.1875"></rect>
                <rect id="矩形" fill="#92C1FC" fill-rule="nonzero" x="70.8958333" y="28.53125" width="26.8020833" height="10.375" rx="5.1875"></rect>
                <rect id="矩形" fill="#63A6F9" fill-rule="nonzero" x="59.65625" y="50.1458333" width="16.4270833" height="1.72916667" rx="0.864583333"></rect>
                <rect id="矩形" fill="#63A6F9" fill-rule="nonzero" x="59.65625" y="57.0625" width="44.9583333" height="1.72916667" rx="0.864583333"></rect>
                <rect id="矩形" fill="#63A6F9" fill-rule="nonzero" x="59.65625" y="72.625" width="16.4270833" height="1.72916667" rx="0.864583333"></rect>
                <rect id="矩形" fill="#63A6F9" fill-rule="nonzero" x="59.65625" y="79.5416667" width="44.9583333" height="1.72916667" rx="0.864583333"></rect>
</svg>