<?xml version="1.0" encoding="UTF-8"?>
<svg width="23px" height="23px" viewBox="0 0 23 23" version="1.1" xmlns="http://www.w3.org/2000/svg" xmlns:xlink="http://www.w3.org/1999/xlink">
    <title>编组 2备份 2</title>
    <defs>
        <linearGradient x1="100%" y1="50%" x2="0%" y2="50%" id="linearGradient-1">
            <stop stop-color="#FF935F" offset="0%"></stop>
            <stop stop-color="#F46B00" offset="100%"></stop>
        </linearGradient>
        <linearGradient x1="50%" y1="0%" x2="50%" y2="94.9564842%" id="linearGradient-2">
            <stop stop-color="#FFFFFF" offset="0%"></stop>
            <stop stop-color="#FFFFFF" stop-opacity="0.700237772" offset="100%"></stop>
        </linearGradient>
    </defs>
    <g id="页面-1" stroke="none" stroke-width="1" fill="none" fill-rule="evenodd">
        <g id="码量授权" transform="translate(-28.000000, -174.000000)">
            <g id="编组-2备份-2" transform="translate(28.000000, 174.000000)">
                <circle id="椭圆形" fill="url(#linearGradient-1)" cx="11.5" cy="11.5" r="11.5"></circle>
                <path d="M16.749261,15.5079604 C16.9194452,15.6770146 17.0101767,15.9102045 16.9989608,16.1497765 C16.9878495,16.3894322 16.8758791,16.6131638 16.6907334,16.7656872 C16.2934067,17.097309 15.7094486,17.0738309 15.3400779,16.7114074 L11.9902549,13.3073046 L8.49330719,16.7486123 C8.32188839,16.9171435 8.10619198,17.000028 7.89120702,17.000028 C7.63742685,16.9983958 7.39710154,16.8852745 7.23411557,16.6907334 C6.90201257,16.2934904 6.92580446,15.709051 7.28912778,15.3400779 L10.6932306,11.9902549 L7.2519438,8.49265851 C7.09180365,8.33341815 7.00132332,8.11705213 7.00059094,7.89120702 C7.00059094,7.64983546 7.10479817,7.41051456 7.30980183,7.23411557 C7.70706573,6.90201257 8.29156785,6.92580446 8.66045726,7.28912778 L12.0102803,10.6932306 L15.507228,7.25127419 C15.6761986,7.0808598 15.9093884,6.99004466 16.1491278,7.00123962 C16.3887835,7.01235087 16.6125989,7.12450965 16.7650386,7.30980183 C17.0966394,7.70714944 17.0731823,8.29108658 16.7107587,8.66045726 L13.3066559,12.0102803 L16.749261,15.5079604 Z" id="路径" fill="url(#linearGradient-2)"></path>
            </g>
        </g>
    </g>
</svg>