<?xml version="1.0" standalone="no"?><!DOCTYPE svg PUBLIC "-//W3C//DTD SVG 1.1//EN" "http://www.w3.org/Graphics/SVG/1.1/DTD/svg11.dtd"><svg t="1635906826129" class="icon" viewBox="0 0 1024 1024" version="1.1" xmlns="http://www.w3.org/2000/svg" p-id="3250" xmlns:xlink="http://www.w3.org/1999/xlink" width="200" height="200"><defs><style type="text/css"></style></defs><path d="M918.857143 763.428571h-80.342857c-5.485714 0-10.628571 2.4-14.057143 6.628572-8 9.714286-16.571429 19.085714-25.6 28a404.388571 404.388571 0 0 1-128.8 86.742857A403.2 403.2 0 0 1 512.457143 916.571429c-54.742857 0-107.771429-10.742857-157.6-31.771429a404.388571 404.388571 0 0 1-128.8-86.742857 403.748571 403.748571 0 0 1-86.857143-128.571429C118.057143 619.657143 107.428571 566.742857 107.428571 512s10.742857-107.657143 31.771429-157.485714c20.342857-48.114286 49.6-91.428571 86.857143-128.571429s80.571429-66.4 128.8-86.742857c49.828571-21.028571 102.857143-31.771429 157.6-31.771429 54.742857 0 107.771429 10.628571 157.6 31.771429 48.228571 20.342857 91.542857 49.6 128.8 86.742857 9.028571 9.028571 17.485714 18.4 25.6 28 3.428571 4.228571 8.685714 6.628571 14.057143 6.628572H918.857143c7.2 0 11.657143-8 7.657143-14.057143C838.857143 110.285714 685.485714 20.114286 511.2 20.571429 237.371429 21.257143 17.828571 243.542857 20.571429 517.028571 23.314286 786.171429 242.514286 1003.428571 512.457143 1003.428571c173.828571 0 326.514286-90.057143 414.057143-225.942857 3.885714-6.057143-0.457143-14.057143-7.657143-14.057143z m101.6-258.628571L858.285714 376.8c-6.057143-4.8-14.857143-0.457143-14.857143 7.2v86.857143H484.571429c-5.028571 0-9.142857 4.114286-9.142858 9.142857v64c0 5.028571 4.114286 9.142857 9.142858 9.142857h358.857142v86.857143c0 7.657143 8.914286 12 14.857143 7.2l162.171429-128a9.142857 9.142857 0 0 0 0-14.4z" p-id="3251"></path></svg>