<?xml version="1.0" standalone="no"?><!DOCTYPE svg PUBLIC "-//W3C//DTD SVG 1.1//EN" "http://www.w3.org/Graphics/SVG/1.1/DTD/svg11.dtd"><svg t="1636878050666" class="icon" viewBox="0 0 1024 1024" version="1.1" xmlns="http://www.w3.org/2000/svg" p-id="3977" xmlns:xlink="http://www.w3.org/1999/xlink" width="200" height="200"><defs><style type="text/css"></style></defs><path d="M867.89 574.16a30.73 30.73 0 0 0-37.52 21.92c-38 144.83-169.31 246-319.25 246a330.71 330.71 0 0 1-306.27-206.82h60.29l-92.78-123.5-91.82 123.5h58.88q1.23 3.72 2.53 7.4A391.65 391.65 0 0 0 511.12 903.5c177.86 0 333.58-120 378.69-291.82a30.73 30.73 0 0 0-21.92-37.52zM153.88 452.57a30.69 30.69 0 0 0 37.35-22.2A329.68 329.68 0 0 1 511.12 182c136.8 0 256.58 82 306.4 207h-60.66l92.78 123.5L941.46 389h-58.58a391.63 391.63 0 0 0-751.2 26.24 30.73 30.73 0 0 0 22.2 37.33z" p-id="3978" fill="#8a8a8a"></path></svg>